<svg width="1194" height="834" viewBox="0 0 1194 834" fill="none" xmlns="http://www.w3.org/2000/svg">
<g clip-path="url(#clip0_207_1385)">
<rect width="834" height="1194" transform="matrix(0 1 -1 0 1194 0)" fill="white"/>
<path d="M272 424.56C297.393 436.44 352.19 480 366 513C343.167 458.44 341.513 393.76 360.209 348C349.962 373.08 299.175 417.52 272 424.56Z" fill="black" stroke="black"/>
<path d="M370.219 653.286C396.403 643.647 465.773 635.464 499.064 648.906C444.023 626.683 396.444 582.319 376.595 536.849C387.474 561.77 384.061 629.063 370.219 653.286Z" fill="black" stroke="black"/>
<path d="M613.193 742.877C624.104 717.196 665.658 661.05 698.253 646.001C644.362 670.882 579.45 675.161 532.725 658.478C558.334 667.622 605.025 716.2 613.193 742.877Z" fill="black" stroke="black"/>
<path d="M844.892 627.213C833.656 601.673 821.209 532.94 832.571 498.883C813.786 555.191 772.443 605.416 728.284 628.032C752.487 615.637 819.862 614.892 844.892 627.213Z" fill="black" stroke="black"/>
<path d="M908.593 359.199C881.591 352.169 819.96 319.293 800.296 289.255C832.807 338.918 846.554 402.502 836.899 451.167C842.191 424.495 883.402 371.188 908.593 359.199Z" fill="black" stroke="black"/>
<path d="M387.317 175.759C394.196 202.8 395.159 272.644 378.347 304.367C406.144 251.919 455.19 209.184 502.469 194.145C476.557 202.388 409.978 192.033 387.317 175.759Z" fill="black" stroke="black"/>
<path d="M709.773 120.225C689.502 139.399 628.963 174.243 593.069 175.001C652.414 173.748 713.62 195.784 749.774 229.761C729.959 211.139 706.591 147.942 709.773 120.225Z" fill="black" stroke="black"/>
<path d="M682.465 384.339C688.194 408.356 698.855 425.721 732.138 464.16C683.897 423.374 658.458 398.84 614.294 353.707C658.483 426.718 687.934 465.19 745.284 531.269C695.975 489.918 671.499 467.695 638.531 431.212" stroke="#FF3B2F"/>
<path d="M495.752 311.339C490.023 335.356 479.362 352.721 446.079 391.16C494.319 350.374 519.759 325.84 563.923 280.707C519.733 353.718 490.283 392.19 432.933 458.269C482.242 416.918 506.718 394.695 539.685 358.212" stroke="#FF3B2F"/>
<g filter="url(#filter0_d_207_1385)">
<path fill-rule="evenodd" clip-rule="evenodd" d="M293.486 182.039C258.414 149.502 216.955 112.099 168.073 68.9997C215.659 113.184 257.215 150.561 293.486 182.039Z" fill="black"/>
<path d="M563.486 420.267C530.178 386.229 517.941 367.452 521.16 334.935C496.314 337.983 435.277 305.09 293.486 182.039C443.638 321.333 476.738 371.422 474.188 397.407C507.095 381.054 527.117 392.177 563.486 420.267Z" fill="black"/>
</g>
<g filter="url(#filter1_d_207_1385)">
<path fill-rule="evenodd" clip-rule="evenodd" d="M889.729 287.623C926.619 257.162 970.164 222.211 1021.45 182C971.395 223.368 927.755 258.288 889.729 287.623Z" fill="black"/>
<path d="M606.448 509.893C641.662 477.832 654.961 459.791 653.622 427.143C678.251 431.618 741.082 402.297 889.729 287.623C731.799 418.032 695.867 466.13 696.915 492.218C665.005 473.997 644.375 483.947 606.448 509.893Z" fill="black"/>
</g>
</g>
<defs>
<filter id="filter0_d_207_1385" x="164.072" y="69" width="403.414" height="359.266" filterUnits="userSpaceOnUse" color-interpolation-filters="sRGB">
<feFlood flood-opacity="0" result="BackgroundImageFix"/>
<feColorMatrix in="SourceAlpha" type="matrix" values="0 0 0 0 0 0 0 0 0 0 0 0 0 0 0 0 0 0 127 0" result="hardAlpha"/>
<feOffset dy="4"/>
<feGaussianBlur stdDeviation="2"/>
<feComposite in2="hardAlpha" operator="out"/>
<feColorMatrix type="matrix" values="0 0 0 0 0 0 0 0 0 0 0 0 0 0 0 0 0 0 0.25 0"/>
<feBlend mode="normal" in2="BackgroundImageFix" result="effect1_dropShadow_207_1385"/>
<feBlend mode="normal" in="SourceGraphic" in2="effect1_dropShadow_207_1385" result="shape"/>
</filter>
<filter id="filter1_d_207_1385" x="602.449" y="182" width="423" height="335.895" filterUnits="userSpaceOnUse" color-interpolation-filters="sRGB">
<feFlood flood-opacity="0" result="BackgroundImageFix"/>
<feColorMatrix in="SourceAlpha" type="matrix" values="0 0 0 0 0 0 0 0 0 0 0 0 0 0 0 0 0 0 127 0" result="hardAlpha"/>
<feOffset dy="4"/>
<feGaussianBlur stdDeviation="2"/>
<feComposite in2="hardAlpha" operator="out"/>
<feColorMatrix type="matrix" values="0 0 0 0 0 0 0 0 0 0 0 0 0 0 0 0 0 0 0.25 0"/>
<feBlend mode="normal" in2="BackgroundImageFix" result="effect1_dropShadow_207_1385"/>
<feBlend mode="normal" in="SourceGraphic" in2="effect1_dropShadow_207_1385" result="shape"/>
</filter>
<clipPath id="clip0_207_1385">
<rect width="834" height="1194" fill="white" transform="matrix(0 1 -1 0 1194 0)"/>
</clipPath>
</defs>
</svg>
